<svg width="953" height="273" viewBox="0 0 953 273" fill="none" xmlns="http://www.w3.org/2000/svg">
<rect width="953" height="273" rx="50" fill="white"/>
<g clip-path="url(#clip0)">
<path d="M172.6 144.5C169.1 153.8 160.4 160.8 149.3 160.8C135.9 160.8 124.9 149.7 124.9 136.4C124.9 123.1 136 112 149.3 112C159.8 112 169.1 119 172.6 128.3H222.6C218.5 91.5 187.7 63 149.3 63C109.2 64.2 76 96.7 76 136.9C76 177.1 109.2 209.6 149.3 209.6C187.1 209.6 218.5 181.1 222.6 144.4H172.6V144.5Z" fill="#222222"/>
<path d="M295.3 137.5V136.9C295.3 109 315.7 90.4 342.4 90.4C366.3 90.4 383.1 101.5 385.5 125.3H358.2C357 116 351.8 110.8 342.5 110.8C330.9 110.8 323.3 120.1 323.3 136.4V137.6C323.3 153.9 330.3 163.2 343.1 163.2C352.4 163.2 358.8 158.5 360.6 148.1H386.8C385.1 172 367.6 184.2 343.7 184.2C311.1 184.6 295.3 166 295.3 137.5Z" fill="#222222"/>
<path d="M408.8 91.5H435V162.5H469.9V182.9H408.8V91.5V91.5Z" fill="#222222"/>
<path d="M496.1 91.5H560.1V111.9H522.3V127.6H552V146.2H522.3V163.1H561.9V183.5H496.2V91.5H496.1Z" fill="#222222"/>
<path d="M588 91.5H624.1C648.5 91.5 661.9 101.4 661.9 120.6V121.2C661.9 134 654.9 141.6 645 145.1L667.1 182.9H639.2L620.6 150.3H614.2V182.9H588V91.5ZM622.9 133.4C631.6 133.4 636.3 129.9 636.3 122.3V121.7C636.3 114.1 631.6 111.2 622.9 111.2H614.2V133.3H622.9V133.4Z" fill="#222222"/>
<path d="M691 91.5H717.8V127.6L745.7 91.5H773.6L739.9 134L775.4 182.9H744.6L717.8 144.5V182.9H691V91.5Z" fill="#222222"/>
<path d="M820.1 143.9L789.8 91.5H819L834.7 122.3L850.4 91.5H876L847.5 143.9V182.9H820.7V143.9H820.1Z" fill="#222222"/>
</g>
<defs>
<clipPath id="clip0">
<rect width="800" height="146.6" fill="white" transform="translate(76 63)"/>
</clipPath>
</defs>
</svg>
